<svg width="170" height="164" viewBox="0 0 170 164" fill="none" xmlns="http://www.w3.org/2000/svg">
<path fill-rule="evenodd" clip-rule="evenodd" d="M157.654 109.258C159.042 106.381 159.191 103.094 158.072 100.108C156.945 97.129 154.636 94.7032 151.661 93.3638C147.114 91.3207 141.036 88.5805 136.482 86.5373C133.507 85.198 130.099 85.0545 127.004 86.141C123.916 87.2207 121.401 89.4483 120.013 92.3252C115.593 101.468 107.525 118.162 104.55 124.312C103.268 126.963 103.041 129.984 103.905 132.785C105.662 138.45 109.792 151.802 109.792 151.802C110.231 153.203 111.265 154.358 112.639 154.98C114.013 155.595 115.6 155.615 116.988 155.035C116.988 155.035 130.248 149.513 135.872 147.169C138.663 146.008 140.909 143.896 142.191 141.245L157.654 109.258ZM148.027 104.926L132.564 136.913C132.38 137.288 132.062 137.596 131.658 137.76L118.263 143.343L114.084 129.854C113.964 129.451 113.999 129.02 114.176 128.644L129.639 96.6507C129.837 96.2407 130.199 95.9263 130.638 95.7692C131.084 95.612 131.566 95.6325 131.998 95.8307L147.17 102.65C147.595 102.842 147.921 103.19 148.084 103.614C148.247 104.044 148.226 104.516 148.027 104.926Z" fill="#0A1A44"/>
<path fill-rule="evenodd" clip-rule="evenodd" d="M95.6248 141.792H20.8957C20.5202 141.792 20.159 141.648 19.8969 141.388C19.6277 141.136 19.479 140.787 19.479 140.425V130.517C19.479 124.838 23.6794 119.843 30.1536 115.586C41.7136 107.98 60.4206 103.183 81.4581 103.183C87.3373 103.183 93.0323 103.559 98.451 104.277C101.355 104.652 104.033 102.691 104.429 99.8896C104.826 97.088 102.786 94.4981 99.8819 94.1155C94.0098 93.3433 87.8331 92.9333 81.4581 92.9333C57.9273 92.9333 37.0952 98.6118 24.1611 107.119C14.294 113.611 8.854 121.859 8.854 130.517V140.425C8.854 143.507 10.1219 146.459 12.3815 148.639C14.6411 150.818 17.7011 152.042 20.8957 152.042H95.6248C98.5573 152.042 100.937 149.746 100.937 146.917C100.937 144.088 98.5573 141.792 95.6248 141.792Z" fill="#0A1A44"/>
<path fill-rule="evenodd" clip-rule="evenodd" d="M81.4583 11.8695C59.9533 11.8695 42.5 28.7137 42.5 49.4528C42.5 70.1988 59.9533 87.0362 81.4583 87.0362C102.963 87.0362 120.417 70.1988 120.417 49.4528C120.417 28.7137 102.963 11.8695 81.4583 11.8695ZM81.4583 22.1195C97.0983 22.1195 109.792 34.3717 109.792 49.4528C109.792 64.5408 97.0983 76.7862 81.4583 76.7862C65.8183 76.7862 53.125 64.5408 53.125 49.4528C53.125 34.3717 65.8183 22.1195 81.4583 22.1195Z" fill="#0A1A44"/>
</svg>
