<svg width="146" height="153" viewBox="0 0 146 153" fill="none" xmlns="http://www.w3.org/2000/svg">
<path d="M134.875 12.3672H114.766V4.90625C114.766 3.71899 114.277 2.58036 113.406 1.74084C112.536 0.901323 111.356 0.429688 110.125 0.429688C108.894 0.429688 107.714 0.901323 106.844 1.74084C105.973 2.58036 105.484 3.71899 105.484 4.90625V12.3672H40.5156V4.90625C40.5156 3.71899 40.0267 2.58036 39.1564 1.74084C38.2861 0.901323 37.1058 0.429688 35.875 0.429688C34.6442 0.429688 33.4639 0.901323 32.5936 1.74084C31.7233 2.58036 31.2344 3.71899 31.2344 4.90625V12.3672H11.125C8.2532 12.3672 5.49903 13.4677 3.46836 15.4265C1.43769 17.3854 0.296875 20.0422 0.296875 22.8125V142.188C0.296875 144.958 1.43769 147.615 3.46836 149.573C5.49903 151.532 8.2532 152.633 11.125 152.633H134.875C137.747 152.633 140.501 151.532 142.532 149.573C144.562 147.615 145.703 144.958 145.703 142.188V22.8125C145.703 20.0422 144.562 17.3854 142.532 15.4265C140.501 13.4677 137.747 12.3672 134.875 12.3672ZM11.125 21.3203H31.2344V28.7812C31.2344 29.9685 31.7233 31.1071 32.5936 31.9467C33.4639 32.7862 34.6442 33.2578 35.875 33.2578C37.1058 33.2578 38.2861 32.7862 39.1564 31.9467C40.0267 31.1071 40.5156 29.9685 40.5156 28.7812V21.3203H105.484V28.7812C105.484 29.9685 105.973 31.1071 106.844 31.9467C107.714 32.7862 108.894 33.2578 110.125 33.2578C111.356 33.2578 112.536 32.7862 113.406 31.9467C114.277 31.1071 114.766 29.9685 114.766 28.7812V21.3203H134.875C135.285 21.3203 135.679 21.4775 135.969 21.7574C136.259 22.0372 136.422 22.4167 136.422 22.8125V48.1797H9.57812V22.8125C9.57812 22.4167 9.7411 22.0372 10.0312 21.7574C10.3213 21.4775 10.7147 21.3203 11.125 21.3203ZM134.875 143.68H11.125C10.7147 143.68 10.3213 143.522 10.0312 143.243C9.7411 142.963 9.57812 142.583 9.57812 142.188V57.1328H136.422V142.188C136.422 142.583 136.259 142.963 135.969 143.243C135.679 143.522 135.285 143.68 134.875 143.68ZM59.0781 76.5312V124.281C59.0781 125.469 58.5892 126.607 57.7189 127.447C56.8486 128.286 55.6683 128.758 54.4375 128.758C53.2067 128.758 52.0264 128.286 51.1561 127.447C50.2858 126.607 49.7969 125.469 49.7969 124.281V83.7758L44.1353 86.5065C43.5899 86.7691 42.9962 86.9255 42.3881 86.9667C41.78 87.008 41.1695 86.9333 40.5913 86.7469C40.0132 86.5606 39.4787 86.2662 39.0185 85.8806C38.5583 85.4949 38.1813 85.0257 37.9091 84.4995C37.6369 83.9734 37.4748 83.4007 37.4321 82.8141C37.3893 82.2275 37.4667 81.6386 37.6599 81.0808C37.8531 80.5231 38.1583 80.0076 38.5581 79.5636C38.9578 79.1197 39.4443 78.7561 39.9897 78.4935L52.3647 72.5247C53.0723 72.1839 53.8585 72.0233 54.6486 72.058C55.4386 72.0927 56.2064 72.3216 56.879 72.723C57.5516 73.1244 58.1067 73.6849 58.4916 74.3515C58.8765 75.018 59.0784 75.7683 59.0781 76.5312ZM105.152 98.3545L88.4688 119.805H103.938C105.168 119.805 106.349 120.276 107.219 121.116C108.089 121.955 108.578 123.094 108.578 124.281C108.578 125.469 108.089 126.607 107.219 127.447C106.349 128.286 105.168 128.758 103.938 128.758H79.1875C78.3257 128.758 77.4809 128.526 76.7478 128.089C76.0147 127.652 75.4222 127.027 75.0368 126.283C74.6514 125.54 74.4882 124.707 74.5656 123.879C74.643 123.051 74.9579 122.26 75.475 121.595L97.75 92.9453C98.3914 92.1323 98.8529 91.2009 99.1059 90.2088C99.3588 89.2166 99.3979 88.185 99.2206 87.1777C99.0432 86.1705 98.6534 85.2091 98.0751 84.3531C97.4968 83.4972 96.7424 82.7649 95.8587 82.2018C94.975 81.6386 93.9809 81.2565 92.9378 81.0791C91.8948 80.9018 90.8251 80.933 89.795 81.1708C88.765 81.4086 87.7966 81.848 86.9498 82.4616C86.103 83.0753 85.3959 83.8502 84.8723 84.7383C84.5955 85.2949 84.2024 85.7903 83.7177 86.1933C83.2329 86.5963 82.667 86.8982 82.0555 87.0801C81.4439 87.262 80.8 87.32 80.1642 87.2503C79.5283 87.1806 78.9143 86.9848 78.3606 86.6752C77.807 86.3656 77.3257 85.9489 76.9471 85.4512C76.5684 84.9536 76.3005 84.3857 76.1602 83.7834C76.02 83.1811 76.0104 82.5573 76.132 81.9513C76.2537 81.3452 76.504 80.77 76.8672 80.2617C78.0334 78.3303 79.5963 76.649 81.4601 75.3209C83.3238 73.9929 85.4491 73.0459 87.7056 72.5383C89.9622 72.0306 92.3024 71.9729 94.5829 72.3686C96.8634 72.7643 99.0361 73.6052 100.968 74.8396C102.899 76.0741 104.549 77.6761 105.816 79.5475C107.084 81.4189 107.941 83.5202 108.336 85.7226C108.732 87.925 108.657 90.182 108.116 92.3555C107.575 94.5289 106.579 96.5728 105.19 98.3619L105.152 98.3545Z" fill="#0A1A44"/>
</svg>
