<svg width="147" height="172" viewBox="0 0 147 172" fill="none" xmlns="http://www.w3.org/2000/svg">
<rect x="5" y="5" width="137" height="162" rx="10" stroke="#0A1A44" stroke-width="10"/>
<path d="M96.1251 54.63L87.0688 45.315L91.1959 41.07L96.1251 46.155L110.533 31.32L114.661 35.565L96.1251 54.63Z" fill="#0A1A44"/>
<path d="M96.1251 97.63L87.0688 88.315L91.1959 84.07L96.1251 89.155L110.533 74.32L114.661 78.565L96.1251 97.63Z" fill="#0A1A44"/>
<path d="M96.1251 138.63L87.0688 129.315L91.1959 125.07L96.1251 130.155L110.533 115.32L114.661 119.565L96.1251 138.63Z" fill="#0A1A44"/>
<line x1="25.9531" y1="45.5" x2="74.0468" y2="45.5" stroke="#0A1A44" stroke-width="5"/>
<line x1="25.9531" y1="86.5" x2="74.0468" y2="86.5" stroke="#0A1A44" stroke-width="5"/>
<line x1="25.9531" y1="130.5" x2="74.0468" y2="130.5" stroke="#0A1A44" stroke-width="5"/>
</svg>
