<svg width="191" height="191" viewBox="0 0 191 191" fill="none" xmlns="http://www.w3.org/2000/svg">
<path d="M105.886 179.062L95.5 173.094L119.375 131.312H155.188C158.354 131.312 161.39 130.055 163.629 127.816C165.867 125.577 167.125 122.541 167.125 119.375V47.75C167.125 44.584 165.867 41.5476 163.629 39.3089C161.39 37.0702 158.354 35.8125 155.188 35.8125H35.8125C32.6465 35.8125 29.6101 37.0702 27.3714 39.3089C25.1327 41.5476 23.875 44.584 23.875 47.75V119.375C23.875 122.541 25.1327 125.577 27.3714 127.816C29.6101 130.055 32.6465 131.312 35.8125 131.312H89.5312V143.25H35.8125C29.4805 143.25 23.4078 140.735 18.9303 136.257C14.4529 131.78 11.9375 125.707 11.9375 119.375V47.75C11.9375 41.418 14.4529 35.3453 18.9303 30.8678C23.4078 26.3904 29.4805 23.875 35.8125 23.875H155.188C161.52 23.875 167.592 26.3904 172.07 30.8678C176.547 35.3453 179.062 41.418 179.062 47.75V119.375C179.062 125.707 176.547 131.78 172.07 136.257C167.592 140.735 161.52 143.25 155.188 143.25H126.299L105.886 179.062Z" fill="#0A1A44"/>
<path d="M47.75 59.6875H143.25V71.625H47.75V59.6875ZM47.75 95.5H107.438V107.438H47.75V95.5Z" fill="#0A1A44"/>
</svg>
